PathFileType	4	(X/Y/Z)	OpenSim_Sub04_CSStiffKnee_Gyro.trc
DataRate	CameraRate	NumFrames	NumMarkers	Units	OrigDataRate	OrigDataStartFrame	OrigNumFrames
100	100	40	8	m	100	6487	7413
Frame#	Time	torso_imu_offset_imu	pelvis_imu_offset_imu	tibia_r_imu_offset_imu	femur_r_imu_offset_imu	tibia_l_imu_offset_imu	femur_l_imu_offset_imu	toes_r_imu_offset_imu	toes_l_imu_offset_imu
				X1	Y1	Z1	X2	Y2	Z2	X3	Y3	Z3	X4	Y4	Z4	X5	Y5	Z5	X6	Y6	Z6	X7	Y7	Z7	X8		Y8	Z8	

6487	64.86000000	-0.22747343	-0.03600692	0.07383863	0.11445825	0.41538610	0.11595618	0.26576607	-0.35778100	-0.72697974	-1.25284671	-0.49555323	-1.10255577	0.40683388	0.05853223	1.78091928	0.94091916	0.86127223	-0.09474032	0.04170003	-0.15456711	0.16552062	1.26580115	-3.78967918	0.73683362
6488	64.87000000	-0.18117489	0.00732711	0.05150679	0.12325678	0.34762082	0.02023926	0.27165442	-0.33940294	-0.86048634	-1.34582138	-0.61529688	-0.99905873	0.17541614	0.01851102	1.79093836	0.88439093	0.92235478	-0.22113679	0.01061359	-0.18909536	0.18395847	1.59521344	-3.72303222	0.90400417
6489	64.88000000	-0.15505404	0.04031034	0.03231386	0.11905020	0.23705721	-0.05922279	0.27904887	-0.32709929	-0.89677154	-1.20663921	-0.65184090	-1.04619826	-0.11738333	-0.06506571	1.76879060	0.70540432	0.96959952	-0.32515673	0.01057217	-0.16275904	0.14924772	1.60599530	-3.62884132	1.16082150
6490	64.89000000	-0.11522841	0.07334045	0.01315916	0.09047494	0.15405731	-0.11427842	0.38632616	-0.38036490	-0.89282802	-0.88548446	-0.51291789	-1.16604177	-0.45322544	-0.12783992	1.68473205	0.45089440	1.01097223	-0.38680778	0.02363995	-0.12658934	0.09958961	1.66148300	-3.45193846	1.38232525
6491	64.90000000	-0.11119891	0.10462883	0.00350094	0.04441393	0.11750916	-0.15834508	0.43406798	-0.45092971	-0.85474153	-0.58772710	-0.40900384	-1.29070515	-0.68226261	-0.14158325	1.51319141	0.12644015	1.00639226	-0.39439015	0.02764405	-0.09285534	0.06137230	1.62149755	-3.12873494	1.56123721
6492	64.91000000	-0.12540710	0.13284903	-0.00188862	-0.00331258	0.10269678	-0.20210044	0.38445047	-0.48046091	-0.69785603	-0.45652578	-0.43596248	-1.38696186	-0.83539528	-0.12178085	1.30510689	-0.18878135	0.88852379	-0.36786875	0.05789521	-0.02622103	0.01032681	1.87078584	-2.71095853	1.61578322
6493	64.92000000	-0.13507490	0.15251732	-0.00921460	-0.03594694	0.09937756	-0.23552026	0.25322346	-0.38653199	-0.42587623	-0.38790252	-0.50780752	-1.46889446	-0.94125409	-0.12360990	1.12145203	-0.43280469	0.66717842	-0.32196063	0.09049901	-0.01322839	-0.02571852	2.32514214	-1.94911866	1.41145894
6494	64.93000000	-0.12511264	0.15340505	-0.01285939	-0.06213501	0.10630413	-0.26773286	0.11838242	-0.28589948	-0.19707376	-0.32412540	-0.57484069	-1.52335592	-0.81611380	-0.15189789	0.99210543	-0.56561464	0.41827000	-0.27774411	0.08656725	-0.02250979	-0.03604027	1.59983394	-0.63534596	0.96196363
6495	64.94000000	-0.11638966	0.14946220	-0.01198853	-0.08572274	0.11208672	-0.29047665	0.02194141	-0.24421077	-0.13948245	-0.29062074	-0.61266364	-1.56225378	-0.41184629	-0.18893176	0.67704812	-0.66313225	0.23485474	-0.21912205	0.08121876	-0.00571269	-0.03851961	0.45702695	0.28835642	0.45847436
6496	64.95000000	-0.10623722	0.14660568	-0.00766759	-0.10065841	0.12640581	-0.30721445	-0.07054873	-0.16988527	-0.18324120	-0.29137135	-0.63246824	-1.59142031	0.39634109	-0.17918449	-0.11347872	-0.79577469	0.10717074	-0.10479544	0.06817558	-0.01197291	-0.04968593	-0.20251441	0.83967003	0.04806681
6497	64.96000000	-0.09209901	0.14985150	0.00402473	-0.08796995	0.13522052	-0.32402426	-0.07987701	-0.11405947	-0.21546427	-0.32438565	-0.66341339	-1.61693019	0.95533224	0.00235838	-1.10078283	-0.83073810	-0.04979863	0.00516504	0.07015761	-0.02112825	-0.06672371	-0.39568279	1.37094832	-0.23043159
6498	64.97000000	-0.08908987	0.14507519	0.01491799	-0.04380781	0.12885155	-0.33279550	-0.01435467	-0.09236897	-0.20205873	-0.39753393	-0.71140955	-1.64780190	0.79865915	0.29463257	-1.77517914	-0.71377025	-0.25096795	-0.02249848	0.07861413	-0.00133130	-0.08983711	-0.44354255	1.80892404	-0.35859975
6499	64.98000000	-0.09307774	0.13751145	0.01407531	0.02062196	0.11172716	-0.31784646	0.05582033	-0.06090698	-0.14937232	-0.48519972	-0.73720208	-1.67116053	0.33463116	0.38484106	-2.00763645	-0.57689028	-0.33526492	-0.15557701	0.07428117	0.01457532	-0.11495154	-0.65925817	2.27635122	-0.39809618
6500	64.99000000	-0.10960998	0.13991767	-0.00307653	0.10055777	0.08163691	-0.27547949	0.15509111	-0.05086900	-0.07705411	-0.55640788	-0.73401333	-1.68076784	0.06732474	0.29056390	-2.08091001	-0.50599440	-0.18998507	-0.26454523	0.08567117	0.05009705	-0.12914690	-0.83519155	2.68211232	-0.36916222
6501	65	-0.15030529	0.13999930	-0.00132932	0.17421204	0.05429481	-0.22126779	0.23361035	-0.05043958	-0.00275622	-0.59028386	-0.69501373	-1.67515035	0.14450671	0.26064439	-2.20386280	-0.46399430	0.08197589	-0.33172657	0.07448519	0.08365086	-0.14152739	-0.80368900	2.91839781	-0.26284889
6502	65.01000000	-0.18029821	0.14668209	-0.00481154	0.23902497	0.02982608	-0.16731605	0.21949289	-0.04836537	0.07284608	-0.60620857	-0.63587605	-1.66332033	0.26217711	0.31129178	-2.35740976	-0.41723871	0.30908292	-0.40741707	0.06780300	0.06995886	-0.15818144	-0.61786674	3.00747498	-0.14890272
6503	65.02000000	-0.21769433	0.15748913	-0.00349514	0.29528992	0.01155767	-0.13620947	0.15848912	-0.01592506	0.13290507	-0.61862469	-0.57416409	-1.63797177	0.30589932	0.34700524	-2.44448725	-0.38657221	0.42858092	-0.52296215	0.06236102	0.05492727	-0.17900913	-0.45321284	3.03748564	-0.08443744
6504	65.03000000	-0.25253616	0.17152011	0.00687797	0.32647905	-0.00339376	-0.13424049	0.10437463	-0.00628139	0.14416725	-0.66037972	-0.50965823	-1.59527853	0.25416622	0.32464456	-2.40413599	-0.37359071	0.44684887	-0.65268465	0.04987052	0.05796737	-0.19853361	-0.36110299	3.00718112	-0.08876331
6505	65.04000000	-0.27136861	0.18414433	0.01531716	0.33255574	-0.00513585	-0.15675582	-0.00017701	-0.06241870	0.06018509	-0.72120411	-0.43695132	-1.53184072	0.15278646	0.28306676	-2.28838080	-0.30282233	0.40884569	-0.75308959	0.04427896	0.04882929	-0.21358077	-0.26769341	2.87256823	-0.14868277
6506	65.05000000	-0.28598249	0.17784890	0.03343869	0.30680379	-0.00241723	-0.19487965	-0.17249221	-0.08307869	-0.05573031	-0.76048184	-0.35418465	-1.45120265	0.17181138	0.27980596	-2.18306228	-0.16480866	0.36738043	-0.81788763	0.00884366	0.02486043	-0.21538418	-0.21600985	2.68338435	-0.23237285
6507	65.06000000	-0.28625374	0.17255868	0.05101618	0.26406117	0.00866777	-0.22064907	-0.30037313	-0.07212064	-0.08048261	-0.78060033	-0.28788772	-1.37360032	0.34633765	0.27890934	-2.13149489	-0.02072205	0.34031626	-0.85815654	0.02368887	0.01993069	-0.21801417	-0.23454302	2.48474238	-0.33567558
6508	65.07000000	-0.27557489	0.16529126	0.07668660	0.20674942	0.02869158	-0.23971677	-0.37764841	-0.07955788	-0.05089761	-0.80492895	-0.24079890	-1.30256351	0.47837679	0.25483861	-2.09873825	0.09219399	0.34544481	-0.88996254	-0.01007281	0.00838962	-0.23066657	-0.23745041	2.28671851	-0.46519207
6509	65.08000000	-0.25592119	0.16048914	0.11210096	0.14228938	0.06567267	-0.24992902	-0.46799910	-0.11192473	-0.07547921	-0.81477754	-0.21279075	-1.23068726	0.45075884	0.23303062	-2.05580565	0.14902941	0.37854464	-0.92090513	-0.04042363	0.00486672	-0.24350113	-0.25963865	2.07834732	-0.60131651
6510	65.09000000	-0.22822480	0.16158153	0.13354555	0.08172293	0.10133597	-0.25961605	-0.49884594	-0.11101182	-0.13412650	-0.80891543	-0.18240020	-1.16400777	0.30024276	0.23575417	-2.02976155	0.14586485	0.41182295	-0.93579213	-0.04005700	0.01947450	-0.25452440	-0.32531453	1.87093609	-0.73841937
6511	65.10000000	-0.20421316	0.15491977	0.13766898	0.01557643	0.11800531	-0.26175452	-0.49754156	-0.10167173	-0.15969133	-0.80403133	-0.13865640	-1.12043583	0.02626740	0.27690181	-2.03367309	0.08095166	0.44204734	-0.93167563	-0.05993206	0.01894904	-0.26574633	-0.37029997	1.68576395	-0.90472411
6512	65.11000000	-0.18664326	0.14177116	0.13547352	-0.05183545	0.10624601	-0.27184170	-0.50034301	-0.10250700	-0.17664472	-0.81042701	-0.12120995	-1.08683921	-0.28965365	0.33730070	-2.06004147	-0.07075320	0.40972710	-0.91795266	-0.08296528	0.02864130	-0.27787219	-0.40714359	1.56179341	-1.09173951
6513	65.12000000	-0.16978265	0.12264716	0.12453054	-0.11592554	0.08266832	-0.28166154	-0.47008232	-0.09856532	-0.20412967	-0.79933869	-0.14388658	-1.05203498	-0.54166591	0.38608293	-2.09289404	-0.19614360	0.38470162	-0.89384041	-0.07791331	0.04748985	-0.29990600	-0.47933915	1.49443129	-1.26534469
6514	65.13000000	-0.16418391	0.10637885	0.11967436	-0.15662292	0.07213719	-0.28268963	-0.43970176	-0.09701419	-0.23581669	-0.74769516	-0.18400496	-1.00826947	-0.74324139	0.40825230	-2.11512161	-0.34139350	0.32272188	-0.86999609	-0.06160684	0.05745788	-0.31234593	-0.57353804	1.43846771	-1.39794192
6515	65.14000000	-0.15089580	0.09936509	0.11024053	-0.17489437	0.07771461	-0.28768807	-0.38961745	-0.09454686	-0.26409038	-0.63284006	-0.22400112	-0.90917062	-0.87615886	0.43385019	-2.12925323	-0.49779248	0.23076724	-0.85000757	-0.06746707	0.06390006	-0.28843607	-0.66449448	1.39654723	-1.47390486
6516	65.15000000	-0.14892387	0.10212923	0.10254451	-0.19575497	0.08039171	-0.27861094	-0.33133419	-0.07452921	-0.28452875	-0.50181698	-0.24328175	-0.80155828	-0.95661618	0.46177664	-2.14666321	-0.63253536	0.17853818	-0.82595340	-0.03871139	0.07819112	-0.28228608	-0.73293853	1.36810030	-1.49147638
6517	65.16000000	-0.13438430	0.10523259	0.08724138	-0.21833617	0.05852457	-0.24897963	-0.27309129	-0.06170586	-0.32128319	-0.39999534	-0.22549585	-0.73884182	-1.02794704	0.48774176	-2.15637806	-0.77537981	0.17065293	-0.79187166	-0.03486872	0.07584872	-0.28085898	-0.74009772	1.34973477	-1.47022318
6518	65.17000000	-0.11384995	0.09622118	0.09060258	-0.24979657	0.01833788	-0.20384057	-0.22220493	-0.07762738	-0.38658754	-0.30398990	-0.19115433	-0.74155266	-1.05661398	0.51016442	-2.15518940	-0.92158278	0.15945237	-0.75563756	-0.04483883	0.07066281	-0.28492435	-0.72503659	1.35939278	-1.41795370
6519	65.18000000	-0.12127719	0.10328383	0.09330213	-0.29482707	-0.03009202	-0.16383177	-0.20975031	-0.06745994	-0.44512267	-0.25064329	-0.13744358	-0.75123162	-1.01203907	0.50018895	-2.15871645	-1.06772759	0.12618661	-0.73240232	-0.03440657	0.08598878	-0.30198953	-0.67416334	1.39597721	-1.35532571
6520	65.19000000	-0.13516917	0.12496650	0.08668796	-0.33934668	-0.07662793	-0.15150489	-0.21331013	-0.07068155	-0.47838762	-0.25602417	-0.08575431	-0.67555919	-0.86563877	0.46822613	-2.15216562	-1.15769729	0.09897989	-0.69963609	-0.01755376	0.06361524	-0.33141594	-0.54408103	1.44021925	-1.26093366
6521	65.20000000	-0.13243639	0.14349610	0.07679675	-0.37165883	-0.12140336	-0.16314119	-0.24579174	-0.08461751	-0.50738794	-0.30362790	-0.04343247	-0.64005872	-0.61339194	0.40099819	-2.11282592	-1.16014221	0.08490568	-0.62091012	0.00749354	0.05541426	-0.35411186	-0.33683566	1.46626974	-1.11594649
6522	65.21000000	-0.08779619	0.15173659	0.06181761	-0.39306850	-0.15614570	-0.19190034	-0.27977119	-0.07533930	-0.56286210	-0.36898852	0.02084181	-0.61411663	-0.25851364	0.27282374	-2.04285146	-1.06416143	0.09952370	-0.51845010	0.01137142	0.04417529	-0.35793869	-0.16101146	1.47532422	-0.91553587
6523	65.22000000	-0.04970776	0.14377722	0.04011290	-0.39417136	-0.16665396	-0.23481051	-0.32355025	-0.07400658	-0.63421744	-0.44673990	0.09311518	-0.53828415	0.14958877	0.17352982	-1.95387437	-0.89638224	0.13761357	-0.43875527	0.01151198	-0.00179161	-0.35014369	-0.10937459	1.46617290	-0.66347378
6524	65.23000000	-0.01940284	0.12097259	0.01868872	-0.38426167	-0.15196493	-0.27966135	-0.38804015	-0.04945610	-0.70123834	-0.50851537	0.13658999	-0.48126615	0.45892512	0.11099841	-1.85098151	-0.66690056	0.17406071	-0.42268924	0.01067628	-0.04519046	-0.34839995	-0.06839385	1.44409834	-0.42654430
6525	65.24000000	0.00454922	0.10022370	0.00312829	-0.37820463	-0.14337534	-0.31560023	-0.43138525	-0.02079969	-0.74193486	-0.55368784	0.14525534	-0.41428457	0.67851150	0.02422419	-1.74191061	-0.40461300	0.18484507	-0.44320920	0.03276154	-0.10402742	-0.37162319	-0.04366309	1.46013850	-0.23527184
6526	65.25000000	0.02179888	0.08868214	-0.01703549	-0.38341442	-0.14687263	-0.33599647	-0.42031536	-0.02093820	-0.78313881	-0.56947563	0.14807084	-0.34832202	0.82949891	-0.05624619	-1.60441616	-0.16176190	0.17421280	-0.46636310	0.03474501	-0.16770336	-0.39652186	-0.06397737	1.44325170	-0.05745244
